<svg viewBox="0 0 1200 630" preserveAspectRatio="xMidYMid slice" xmlns="http://www.w3.org/2000/svg" role="img" aria-label="Baalvion Mining Inc.">
  <defs>
    <linearGradient id="o" x1="0" y1="0" x2="0" y2="630" gradientUnits="userSpaceOnUse">
      <stop offset="0" stop-color="#0B2540"/><stop offset="1" stop-color="#0A1A2B"/>
    </linearGradient>
  </defs>
  <rect width="1200" height="630" fill="url(#o)"/>
  <circle cx="990" cy="150" r="300" fill="#21CEDD" opacity="0.07"/>
  <path d="M0 520 L200 360 L360 460 L560 300 L760 470 L960 340 L1200 480 L1200 630 L0 630 Z" fill="#0E2E4E"/>
  <path d="M560 300 L600 360 L500 460 L420 360 Z" fill="#21CEDD"/>
  <circle cx="560" cy="300" r="8" fill="#FFFFFF"/>
  <g transform="translate(80 150)">
    <rect width="56" height="56" rx="13" fill="#0E2B49"/>
    <path d="M10 40 L21 21 L28 31 L35 17 L46 40 Z" fill="#21CEDD"/>
  </g>
  <text x="156" y="178" font-family="Arial, Helvetica, sans-serif" font-size="34" font-weight="800" fill="#FFFFFF">Baalvion Mining Inc.</text>
  <text x="80" y="300" font-family="Arial, Helvetica, sans-serif" font-size="56" font-weight="800" fill="#FFFFFF">Global Mineral Trade &amp;</text>
  <text x="80" y="370" font-family="Arial, Helvetica, sans-serif" font-size="56" font-weight="800" fill="#21CEDD">Commodity Supply Network</text>
  <text x="80" y="430" font-family="Arial, Helvetica, sans-serif" font-size="24" fill="#9FC6D6">Secure · Compliant · Transparent B2B trade</text>
</svg>
