<svg xmlns="http://www.w3.org/2000/svg" viewBox="0 0 800 600" width="800" height="600" role="img"><defs><linearGradient id="bg" x1="0" y1="0" x2="1" y2="1"><stop offset="0%" stop-color="#eefbf3" /><stop offset="100%" stop-color="#d9f3e3" /></linearGradient></defs><rect width="800" height="600" fill="url(#bg)" /><circle cx="400" cy="270" r="150" fill="#d9f3e3" stroke="#1f9d55" stroke-width="3" opacity="0.9" /><g transform="translate(300,170) scale(8.333333333333334)" stroke="#1f9d55" stroke-width="1.6" fill="none" stroke-linecap="round" stroke-linejoin="round"><polyline points="4,10 12,4 20,10" /><line x1="4" y1="20" x2="20" y2="20" /><line x1="4" y1="10" x2="4" y2="20" /><line x1="20" y1="10" x2="20" y2="20" /><line x1="7" y1="10" x2="7" y2="20" /><line x1="12" y1="10" x2="12" y2="20" /><line x1="17" y1="10" x2="17" y2="20" /></g><text x="358" y="480" font-family="Helvetica, Arial, sans-serif" font-size="20" font-weight="700" letter-spacing="2" fill="#1f9d55">ECONOMY</text><g transform="translate(60,60) scale(2.9166666666666665)" stroke="#0f3d24" stroke-width="1.6" fill="none" stroke-linecap="round" stroke-linejoin="round"><polyline points="3,11 12,4 21,11" /><rect x="5" y="11" width="14" height="9" /><rect x="10" y="15" width="4" height="5" /></g></svg>