<svg xmlns="http://www.w3.org/2000/svg" viewBox="0 0 800 600" width="800" height="600" role="img"><defs><linearGradient id="bg" x1="0" y1="0" x2="1" y2="1"><stop offset="0%" stop-color="#f4f5f7" /><stop offset="100%" stop-color="#e6e8ec" /></linearGradient></defs><rect width="800" height="600" fill="url(#bg)" /><text x="60" y="90" font-family="Helvetica, Arial, sans-serif" font-size="20" font-weight="700" letter-spacing="2" fill="#3d4759">STOCKS</text><polyline points="60,460 220,380 360,420 520,300 700,220" fill="none" stroke="#3d4759" stroke-width="4" stroke-linecap="round" stroke-linejoin="round" opacity="0.55" /><g transform="translate(560,140) scale(7.083333333333333)" stroke="#3d4759" stroke-width="1.6" fill="none" stroke-linecap="round" stroke-linejoin="round"><rect x="2" y="6" width="20" height="12" rx="2" /><line x1="2" y1="10" x2="22" y2="10" /><rect x="5" y="14.5" width="4" height="2" /></g><g transform="translate(100,200) scale(4.166666666666667)" stroke="#1b202b" stroke-width="1.6" fill="none" stroke-linecap="round" stroke-linejoin="round"><polyline points="4,7 9,13 13,10 20,18" /><polyline points="20,12 20,18 14,18" /></g><g transform="translate(260,200) scale(4.166666666666667)" stroke="#1b202b" stroke-width="1.6" fill="none" stroke-linecap="round" stroke-linejoin="round"><rect x="6" y="2" width="12" height="20" /><line x1="9" y1="7" x2="15" y2="7" /><line x1="9" y1="11" x2="15" y2="11" /><line x1="9" y1="15" x2="13" y2="15" /></g></svg>