<svg xmlns="http://www.w3.org/2000/svg" viewBox="0 0 800 600" width="800" height="600" role="img"><defs><linearGradient id="bg" x1="0" y1="0" x2="1" y2="1"><stop offset="0%" stop-color="#eef4ff" /><stop offset="100%" stop-color="#dbe7fd" /></linearGradient></defs><rect width="800" height="600" fill="url(#bg)" /><g transform="translate(90,190) scale(9.166666666666666)" stroke="#2454d6" stroke-width="1.6" fill="none" stroke-linecap="round" stroke-linejoin="round"><rect x="6" y="2" width="12" height="20" /><line x1="9" y1="7" x2="15" y2="7" /><line x1="9" y1="11" x2="15" y2="11" /><line x1="9" y1="15" x2="13" y2="15" /></g><g transform="translate(520,400) scale(3.75)" stroke="#12224d" stroke-width="1.6" fill="none" stroke-linecap="round" stroke-linejoin="round"><ellipse cx="12" cy="13" rx="8" ry="6" /><circle cx="18" cy="10.5" r="0.8" /><line x1="9" y1="7.5" x2="12" y2="7.5" /><line x1="6" y1="17" x2="6" y2="20" /><line x1="16" y1="17" x2="16" y2="20" /><path d="M20,12 L23,11 L23,15 Z" /></g><text x="90" y="130" font-family="Helvetica, Arial, sans-serif" font-size="20" font-weight="700" letter-spacing="2" fill="#2454d6">ECONOMY</text><line x1="480" y1="80" x2="480" y2="520" stroke="#2454d6" stroke-width="2" opacity="0.25" /></svg>